<svg id="Capa_1" enable-background="new 0 0 512 512" height="512" viewBox="0 0 512 512" width="512" xmlns="http://www.w3.org/2000/svg"><path d="m489.123 22.863-123.315 123.315 79.549-5.303 43.765-43.765c20.504-20.503 20.504-53.745.001-74.247z" fill="#ff3187"/><path d="m489.123 22.863c-20.502-20.502-53.744-20.502-74.246 0l-43.765 43.765 10.607 95.459 86.191-86.191c20.502-20.503 30-44.246 21.213-53.033z" fill="#ff5178"/><path d="m71.14 440.846-63.64 63.64 60.988-23.865z" fill="#2d3e53"/><path d="m31.365 443.498-23.865 60.988 50.381-34.471 13.259-29.169z" fill="#435d7a"/><path d="m134.779 377.207-76.898 92.808 10.607 10.606 60.988-23.865z" fill="#ffb17b"/><path d="m108.263 435.543 26.516-58.336-79.549 5.303-23.865 60.988 26.516 26.517z" fill="#ffd19c"/><path d="m307.472 151.481 116.673 10.606 21.213-21.213-21.213-21.213z" fill="#a6cfe7"/><path d="m424.145 119.661-53.033-53.033-21.214 21.213v106.066z" fill="#bfebff"/><path d="m286.259 172.694 106.066 21.213 31.82-31.82-21.214-21.213z" fill="#8db3cf"/><path d="m402.931 140.874-53.033-53.033-31.819 31.82 10.606 95.459z" fill="#a6cfe7"/><path d="m254.439 204.514 116.673 10.606 21.213-21.213-21.213-21.213z" fill="#a6cfe7"/><path d="m371.112 172.694-53.033-53.033-21.214 21.213v106.066z" fill="#bfebff"/><path d="m108.263 435.543 21.213 21.213 241.636-241.636-21.213-21.213-170.316 71.32z" fill="#ffb24a"/><path d="m31.701 250.708h341.722v74.999h-341.722z" fill="#ffd23b" transform="matrix(.707 -.707 .707 .707 -144.465 227.647)"/><path d="m129.476 464.256c-1.919 0-3.839-.732-5.303-2.196l-74.246-74.246c-2.929-2.93-2.929-7.678 0-10.607 2.929-2.928 7.678-2.928 10.606 0l74.246 74.246c2.929 2.93 2.929 7.678 0 10.607-1.464 1.464-3.383 2.196-5.303 2.196z"/><path d="m392.325 201.407c-1.919 0-3.839-.732-5.304-2.197l-53.033-53.033c-2.929-2.929-2.929-7.678 0-10.606 2.93-2.929 7.678-2.929 10.607 0l53.033 53.033c2.929 2.929 2.929 7.678 0 10.606-1.464 1.464-3.384 2.197-5.303 2.197z"/><path d="m445.359 148.374c-1.919 0-3.839-.732-5.304-2.197l-74.246-74.246c-2.929-2.929-2.929-7.678 0-10.606 2.93-2.929 7.678-2.929 10.607 0l74.246 74.246c2.929 2.929 2.929 7.678 0 10.606-1.464 1.465-3.384 2.197-5.303 2.197z"/><path d="m424.145 169.587c-1.919 0-3.839-.732-5.304-2.197l-74.246-74.246c-2.929-2.929-2.929-7.678 0-10.606 2.93-2.929 7.678-2.929 10.607 0l74.246 74.246c2.929 2.929 2.929 7.678 0 10.606-1.464 1.465-3.384 2.197-5.303 2.197z"/><path d="m371.113 222.62c-1.919 0-3.839-.732-5.304-2.197l-74.247-74.246c-2.929-2.929-2.929-7.678 0-10.606 2.929-2.929 7.678-2.929 10.606 0l74.248 74.246c2.929 2.929 2.929 7.678 0 10.606-1.465 1.464-3.384 2.197-5.303 2.197z"/><path d="m68.488 488.121c-1.919 0-3.839-.732-5.303-2.196l-37.123-37.123c-2.929-2.93-2.929-7.678 0-10.607s7.678-2.927 10.606 0l37.123 37.123c2.929 2.93 2.929 7.678 0 10.607-1.464 1.464-3.384 2.196-5.303 2.196z"/><path d="m7.502 511.985c-1.954 0-3.872-.764-5.305-2.196-2.107-2.107-2.767-5.262-1.681-8.037l47.73-121.976c.377-.963.95-1.838 1.681-2.57l359.647-359.646c23.395-23.393 61.458-23.394 84.853 0 11.332 11.332 17.573 26.399 17.573 42.426s-6.241 31.094-17.574 42.426l-359.646 359.648c-.731.731-1.607 1.304-2.57 1.681l-121.977 47.729c-.887.346-1.813.515-2.731.515zm54.141-125.281-40.911 104.55 104.551-40.911 358.537-358.537c8.5-8.5 13.181-19.8 13.181-31.82s-4.681-23.321-13.18-31.82c-17.547-17.545-46.095-17.545-63.64 0zm67.833 70.052h.01z"/></svg>